<?xml version="1.0" encoding="utf-8"?>
<!-- Generator: Adobe Illustrator 23.0.0, SVG Export Plug-In . SVG Version: 6.00 Build 0)  -->
<svg version="1.1" id="usd_coin" xmlns="http://www.w3.org/2000/svg" xmlns:xlink="http://www.w3.org/1999/xlink" x="0px" y="0px"
	 viewBox="0 0 132 135" style="enable-background:new 0 0 132 135;" xml:space="preserve">
<style type="text/css">
	.st0{fill:#2775CA;}
	.st1{fill:#FFFFFF;}
</style>
<path id="circle" class="st0" d="M66.25,130c34.79,0,63-28.21,63-63s-28.21-63-63-63s-63,28.21-63,63S31.46,130,66.25,130z"/>
<g id="icon">
	<path id="dollar" class="st1" d="M83.52,77.02c0-9.2-5.6-12.3-16.42-13.78c-7.98-1.16-9.53-3.03-9.53-6.76
		c0-3.54,2.7-6.05,7.92-6.05c4.72,0,7.43,1.65,8.55,5.44c0.25,0.85,1.01,1.45,1.89,1.45h4.14c1.15,0,2.05-1.06,1.81-2.19
		c-1.31-6-5.35-9.6-11.69-10.73v-6.27c0-1.09-0.88-1.97-1.97-1.97h-3.94c-1.09,0-1.97,0.88-1.97,1.97v6.1
		c-7.81,1.11-12.85,6.3-12.85,12.97c0,8.63,5.21,11.97,16.22,13.45c7.47,1.22,9.59,2.83,9.59,7.08c0,4.25-3.61,7.08-8.69,7.08
		c-6.87,0-9.14-3.01-9.97-6.9c-0.2-0.92-0.99-1.6-1.93-1.6h-4.49c-1.13,0-2.02,1.02-1.82,2.13c1.14,6.55,5.35,11.36,13.94,12.53
		v6.22c0,1.09,0.88,1.97,1.97,1.97h3.94c1.09,0,1.97-0.88,1.97-1.97v-6.22C78.32,89.68,83.52,84.02,83.52,77.02z"/>
	<path id="left_curve" class="st1" d="M52.75,104.64c-15.08-5.52-25.87-20.02-25.87-36.99c0-16.97,10.79-31.46,25.87-36.99
		c0.94-0.34,1.69-1.48,1.69-2.48v-3.67c0-1.49-1.16-2.33-2.58-1.88C32.8,28.73,19,46.58,19,67.66c0,21.08,13.8,38.93,32.86,45.02
		c1.42,0.45,2.58-0.39,2.58-1.88v-3.67C54.44,106.12,53.69,104.99,52.75,104.64z"/>
	<path id="right_curve" class="st1" d="M80.65,22.64c-1.42-0.45-2.58,0.39-2.58,1.88v3.67c0,1,0.75,2.14,1.69,2.48
		c15.08,5.52,25.87,20.02,25.87,36.99c0,16.97-10.79,31.46-25.87,36.99c-1.03,0.38-1.69,1.39-1.69,2.48v3.67
		c0,1.49,1.16,2.33,2.58,1.88c19.06-6.09,32.86-23.94,32.86-45.02S99.7,28.73,80.65,22.64z"/>
</g>
</svg>
