<?xml version="1.0" encoding="UTF-8" standalone="no"?>
<svg
   xmlns:dc="http://purl.org/dc/elements/1.1/"
   xmlns:cc="http://creativecommons.org/ns#"
   xmlns:rdf="http://www.w3.org/1999/02/22-rdf-syntax-ns#"
   xmlns:svg="http://www.w3.org/2000/svg"
   xmlns="http://www.w3.org/2000/svg"
   xmlns:xlink="http://www.w3.org/1999/xlink"
   xmlns:sodipodi="http://sodipodi.sourceforge.net/DTD/sodipodi-0.dtd"
   xmlns:inkscape="http://www.inkscape.org/namespaces/inkscape"
   id="Layer_1"
   viewBox="0 0 471.2821 509.77685"
   width="560.86316"
   height="606.39459"
   version="1.1"
   sodipodi:docname="ripple.svg"
   inkscape:version="0.92.2 2405546, 2018-03-11">
  <metadata
     id="metadata3797">
    <rdf:RDF>
      <cc:Work
         rdf:about="">
        <dc:format>image/svg+xml</dc:format>
        <dc:type
           rdf:resource="http://purl.org/dc/dcmitype/StillImage" />
        <dc:title></dc:title>
      </cc:Work>
    </rdf:RDF>
  </metadata>
  <sodipodi:namedview
     pagecolor="#ffffff"
     bordercolor="#666666"
     borderopacity="1"
     objecttolerance="10"
     gridtolerance="10"
     guidetolerance="10"
     inkscape:pageopacity="0"
     inkscape:pageshadow="2"
     inkscape:window-width="1920"
     inkscape:window-height="1006"
     id="namedview3795"
     showgrid="false"
     fit-margin-top="0"
     fit-margin-left="0"
     fit-margin-right="0"
     fit-margin-bottom="0"
     inkscape:zoom="0.7032"
     inkscape:cx="772.81954"
     inkscape:cy="289.73965"
     inkscape:window-x="0"
     inkscape:window-y="0"
     inkscape:window-maximized="1"
     inkscape:current-layer="Layer_1" />
  <style
     id="style3775">.st0{fill:#474d55}.st1{clip-path:url(#SVGID_2_);fill:url(#SVGID_3_)}</style>
  <defs
     id="defs3780">
    <path
       id="SVGID_1_"
       d="m 311.7,49.3 c -33.5,19.7 -53.3,55.2 -53.3,92.7 0,19.7 7.9,39.5 17.8,57.2 7.9,15.8 11.8,43.4 -15.8,57.2 -19.7,11.8 -45.4,3.9 -57.2,-15.8 -11.8,-15.8 -25.6,-31.6 -43.4,-43.4 -33.5,-19.7 -73,-19.7 -106.5,0 C 19.8,216.9 0,252.5 0,290 c 0,37.5 19.7,73 53.3,92.7 33.5,19.7 73,19.7 106.5,0 17.8,-9.9 31.6,-25.6 41.4,-43.4 7.9,-13.8 29.6,-31.6 57.2,-15.8 19.7,11.8 25.6,37.5 15.8,57.2 -9.9,17.8 -15.8,37.5 -15.8,57.2 0,37.5 19.7,73 53.3,92.7 33.5,19.7 73,19.7 106.5,0 33.5,-19.7 53.3,-55.2 53.3,-92.7 0,-37.5 -19.7,-73 -53.3,-92.7 -17.8,-9.9 -37.5,-13.8 -59.2,-13.8 -17.8,0 -41.4,-11.8 -41.4,-41.4 0,-23.7 17.8,-41.4 41.4,-41.4 19.7,0 41.4,-3.9 59.2,-13.8 33.5,-19.7 53.3,-55.2 53.3,-92.7 0,-37.5 -19.7,-73 -53.3,-92.7 -15.8,-9.9 -35.5,-13.8 -53.3,-13.8 -17.7,-0.1 -37.5,3.9 -53.2,13.7"
       inkscape:connector-curvature="0" />
  </defs>
  <clipPath
     id="SVGID_2_">
    <use
       xlink:href="#SVGID_1_"
       overflow="visible"
       id="use3782"
       style="overflow:visible"
       x="0"
       y="0"
       width="100%"
       height="100%" />
  </clipPath>
  <linearGradient
     id="SVGID_3_"
     gradientUnits="userSpaceOnUse"
     x1="608.39001"
     y1="127.025"
     x2="628.11603"
     y2="127.025"
     gradientTransform="matrix(17.967583,17.967583,-17.967583,17.967583,-8554.455,-13061.933)">
    <stop
       offset="0"
       stop-color="#11aae2"
       id="stop3785" />
    <stop
       offset=".594"
       stop-color="#0880b7"
       id="stop3787" />
    <stop
       offset="1"
       stop-color="#016197"
       id="stop3789" />
  </linearGradient>
  <path
     class="st1"
     d="M 236.7,-201.2 729.8,293.9 236.7,787 -258.4,293.9 Z"
     clip-path="url(#SVGID_2_)"
     id="path3792"
     inkscape:connector-curvature="0"
     style="fill:url(#SVGID_3_)"
     transform="translate(-0.4856546,-35.598174)" />
</svg>
